<svg xmlns="http://www.w3.org/2000/svg" viewBox="0 0 200 142" fill="currentColor">
  <g>
  	<path d="M73.74,0.1c0.6,0.57,1.19,1.12,1.82,1.71c-15.99,15.41-31.91,30.75-47.84,46.1c0.02,0.04,0.04,0.09,0.07,0.13
  		c0.2-0.07,0.4-0.12,0.59-0.21c6.15-2.75,12.58-4.16,19.31-4.27c23.8-0.41,44.68,16.61,48.67,39.97
  		c2.75,16.11-1.42,30.36-12.57,42.35c-7.79,8.38-17.52,13.3-28.89,14.82c-24.49,3.26-47.59-12.03-53.64-35.85
  		C-3.15,87.5,0.86,72,12.95,58.77c3.62-3.95,7.67-7.51,11.54-11.24c5.21-5.03,10.43-10.06,15.65-15.08
  		c6.64-6.4,13.29-12.8,19.93-19.2c4.41-4.25,8.82-8.5,13.23-12.75C73.45,0.35,73.61,0.22,73.74,0.1z"/>
  	<path d="M176.08-0.21c0.6,0.57,1.19,1.12,1.82,1.71c-15.99,15.41-31.91,30.75-47.84,46.1c0.02,0.04,0.04,0.09,0.07,0.13
  		c0.2-0.07,0.4-0.12,0.59-0.21c6.15-2.75,12.58-4.16,19.31-4.27c23.8-0.41,44.68,16.61,48.67,39.97
  		c2.75,16.11-1.42,30.36-12.57,42.35c-7.79,8.38-17.52,13.3-28.89,14.82c-24.49,3.26-47.59-12.03-53.64-35.85
  		c-4.4-17.34-0.4-32.84,11.7-46.07c3.62-3.95,7.67-7.51,11.54-11.24c5.21-5.03,10.43-10.06,15.65-15.08
  		c6.64-6.4,13.29-12.8,19.93-19.2c4.41-4.25,8.82-8.5,13.23-12.75C175.79,0.04,175.95-0.09,176.08-0.21z"/>
  </g>
</svg>